<svg width="1300" height="620" viewBox="0 0 1300 620" xmlns="http://www.w3.org/2000/svg" font-family="system-ui, -apple-system, 'Segoe UI', sans-serif" role="img" aria-labelledby="title-cg desc-cg">
  <title id="title-cg">CPU architecture favors a few complex cores; GPU architecture favors thousands of simple parallel cores</title>
  <desc id="desc-cg">Two side-by-side panels. The left panel, a CPU, shows four large core boxes, each with its own control logic, suited to varied, branchy instructions. The right panel, a GPU, shows a dense grid of many small identical cores, all executing the same instruction across many data elements at once.</desc>
  <rect width="1300" height="620" fill="#fcfcfb"/><text x="650" y="40" text-anchor="middle" font-size="19" font-weight="700" fill="#0b0b0b">Same transistors, very different tradeoffs</text><rect x="90" y="90" width="560" height="460" rx="12" fill="#ffffff" stroke="#e3e1db" stroke-width="1.5"/><text x="370" y="128" text-anchor="middle" font-size="16" font-weight="700" fill="#184f95">CPU</text><text x="370" y="150" text-anchor="middle" font-size="12" fill="#52514e">a few large, complex cores</text><rect x="138" y="175" width="220" height="130" rx="10" fill="#2a78d6" stroke="#104281" stroke-width="1.5"/><text x="248" y="236" text-anchor="middle" font-size="13.5" font-weight="700" fill="#ffffff">Core</text><text x="248" y="258" text-anchor="middle" font-size="11" fill="#86b6ef">own control logic</text><rect x="382" y="175" width="220" height="130" rx="10" fill="#2a78d6" stroke="#104281" stroke-width="1.5"/><text x="492" y="236" text-anchor="middle" font-size="13.5" font-weight="700" fill="#ffffff">Core</text><text x="492" y="258" text-anchor="middle" font-size="11" fill="#86b6ef">own control logic</text><rect x="138" y="329" width="220" height="130" rx="10" fill="#2a78d6" stroke="#104281" stroke-width="1.5"/><text x="248" y="390" text-anchor="middle" font-size="13.5" font-weight="700" fill="#ffffff">Core</text><text x="248" y="412" text-anchor="middle" font-size="11" fill="#86b6ef">own control logic</text><rect x="382" y="329" width="220" height="130" rx="10" fill="#2a78d6" stroke="#104281" stroke-width="1.5"/><text x="492" y="390" text-anchor="middle" font-size="13.5" font-weight="700" fill="#ffffff">Core</text><text x="492" y="412" text-anchor="middle" font-size="11" fill="#86b6ef">own control logic</text><text x="370" y="520" text-anchor="middle" font-size="12" fill="#52514e">optimized for varied, branchy instruction streams</text><rect x="710" y="90" width="560" height="460" rx="12" fill="#ffffff" stroke="#e3e1db" stroke-width="1.5"/><text x="990" y="128" text-anchor="middle" font-size="16" font-weight="700" fill="#184f95">GPU</text><text x="990" y="150" text-anchor="middle" font-size="12" fill="#52514e">thousands of small, simple cores (SIMT)</text><rect x="744.5" y="180" width="26" height="26" rx="3" fill="#5598e7" stroke="#104281" stroke-width="0.75"/><rect x="775.5" y="180" width="26" height="26" rx="3" fill="#5598e7" stroke="#104281" stroke-width="0.75"/><rect x="806.5" y="180" width="26" height="26" rx="3" fill="#5598e7" stroke="#104281" stroke-width="0.75"/><rect x="837.5" y="180" width="26" height="26" rx="3" fill="#5598e7" stroke="#104281" stroke-width="0.75"/><rect x="868.5" y="180" width="26" height="26" rx="3" fill="#5598e7" stroke="#104281" stroke-width="0.75"/><rect x="899.5" y="180" width="26" height="26" rx="3" fill="#5598e7" stroke="#104281" stroke-width="0.75"/><rect x="930.5" y="180" width="26" height="26" rx="3" fill="#5598e7" stroke="#104281" stroke-width="0.75"/><rect x="961.5" y="180" width="26" height="26" rx="3" fill="#5598e7" stroke="#104281" stroke-width="0.75"/><rect x="992.5" y="180" width="26" height="26" rx="3" fill="#5598e7" stroke="#104281" stroke-width="0.75"/><rect x="1023.5" y="180" width="26" height="26" rx="3" fill="#5598e7" stroke="#104281" stroke-width="0.75"/><rect x="1054.5" y="180" width="26" height="26" rx="3" fill="#5598e7" stroke="#104281" stroke-width="0.75"/><rect x="1085.5" y="180" width="26" height="26" rx="3" fill="#5598e7" stroke="#104281" stroke-width="0.75"/><rect x="1116.5" y="180" width="26" height="26" rx="3" fill="#5598e7" stroke="#104281" stroke-width="0.75"/><rect x="1147.5" y="180" width="26" height="26" rx="3" fill="#5598e7" stroke="#104281" stroke-width="0.75"/><rect x="1178.5" y="180" width="26" height="26" rx="3" fill="#5598e7" stroke="#104281" stroke-width="0.75"/><rect x="1209.5" y="180" width="26" height="26" rx="3" fill="#5598e7" stroke="#104281" stroke-width="0.75"/><rect x="744.5" y="211" width="26" height="26" rx="3" fill="#5598e7" stroke="#104281" stroke-width="0.75"/><rect x="775.5" y="211" width="26" height="26" rx="3" fill="#5598e7" stroke="#104281" stroke-width="0.75"/><rect x="806.5" y="211" width="26" height="26" rx="3" fill="#5598e7" stroke="#104281" stroke-width="0.75"/><rect x="837.5" y="211" width="26" height="26" rx="3" fill="#5598e7" stroke="#104281" stroke-width="0.75"/><rect x="868.5" y="211" width="26" height="26" rx="3" fill="#5598e7" stroke="#104281" stroke-width="0.75"/><rect x="899.5" y="211" width="26" height="26" rx="3" fill="#5598e7" stroke="#104281" stroke-width="0.75"/><rect x="930.5" y="211" width="26" height="26" rx="3" fill="#5598e7" stroke="#104281" stroke-width="0.75"/><rect x="961.5" y="211" width="26" height="26" rx="3" fill="#5598e7" stroke="#104281" stroke-width="0.75"/><rect x="992.5" y="211" width="26" height="26" rx="3" fill="#5598e7" stroke="#104281" stroke-width="0.75"/><rect x="1023.5" y="211" width="26" height="26" rx="3" fill="#5598e7" stroke="#104281" stroke-width="0.75"/><rect x="1054.5" y="211" width="26" height="26" rx="3" fill="#5598e7" stroke="#104281" stroke-width="0.75"/><rect x="1085.5" y="211" width="26" height="26" rx="3" fill="#5598e7" stroke="#104281" stroke-width="0.75"/><rect x="1116.5" y="211" width="26" height="26" rx="3" fill="#5598e7" stroke="#104281" stroke-width="0.75"/><rect x="1147.5" y="211" width="26" height="26" rx="3" fill="#5598e7" stroke="#104281" stroke-width="0.75"/><rect x="1178.5" y="211" width="26" height="26" rx="3" fill="#5598e7" stroke="#104281" stroke-width="0.75"/><rect x="1209.5" y="211" width="26" height="26" rx="3" fill="#5598e7" stroke="#104281" stroke-width="0.75"/><rect x="744.5" y="242" width="26" height="26" rx="3" fill="#5598e7" stroke="#104281" stroke-width="0.75"/><rect x="775.5" y="242" width="26" height="26" rx="3" fill="#5598e7" stroke="#104281" stroke-width="0.75"/><rect x="806.5" y="242" width="26" height="26" rx="3" fill="#5598e7" stroke="#104281" stroke-width="0.75"/><rect x="837.5" y="242" width="26" height="26" rx="3" fill="#5598e7" stroke="#104281" stroke-width="0.75"/><rect x="868.5" y="242" width="26" height="26" rx="3" fill="#5598e7" stroke="#104281" stroke-width="0.75"/><rect x="899.5" y="242" width="26" height="26" rx="3" fill="#5598e7" stroke="#104281" stroke-width="0.75"/><rect x="930.5" y="242" width="26" height="26" rx="3" fill="#5598e7" stroke="#104281" stroke-width="0.75"/><rect x="961.5" y="242" width="26" height="26" rx="3" fill="#5598e7" stroke="#104281" stroke-width="0.75"/><rect x="992.5" y="242" width="26" height="26" rx="3" fill="#5598e7" stroke="#104281" stroke-width="0.75"/><rect x="1023.5" y="242" width="26" height="26" rx="3" fill="#5598e7" stroke="#104281" stroke-width="0.75"/><rect x="1054.5" y="242" width="26" height="26" rx="3" fill="#5598e7" stroke="#104281" stroke-width="0.75"/><rect x="1085.5" y="242" width="26" height="26" rx="3" fill="#5598e7" stroke="#104281" stroke-width="0.75"/><rect x="1116.5" y="242" width="26" height="26" rx="3" fill="#5598e7" stroke="#104281" stroke-width="0.75"/><rect x="1147.5" y="242" width="26" height="26" rx="3" fill="#5598e7" stroke="#104281" stroke-width="0.75"/><rect x="1178.5" y="242" width="26" height="26" rx="3" fill="#5598e7" stroke="#104281" stroke-width="0.75"/><rect x="1209.5" y="242" width="26" height="26" rx="3" fill="#5598e7" stroke="#104281" stroke-width="0.75"/><rect x="744.5" y="273" width="26" height="26" rx="3" fill="#5598e7" stroke="#104281" stroke-width="0.75"/><rect x="775.5" y="273" width="26" height="26" rx="3" fill="#5598e7" stroke="#104281" stroke-width="0.75"/><rect x="806.5" y="273" width="26" height="26" rx="3" fill="#5598e7" stroke="#104281" stroke-width="0.75"/><rect x="837.5" y="273" width="26" height="26" rx="3" fill="#5598e7" stroke="#104281" stroke-width="0.75"/><rect x="868.5" y="273" width="26" height="26" rx="3" fill="#5598e7" stroke="#104281" stroke-width="0.75"/><rect x="899.5" y="273" width="26" height="26" rx="3" fill="#5598e7" stroke="#104281" stroke-width="0.75"/><rect x="930.5" y="273" width="26" height="26" rx="3" fill="#5598e7" stroke="#104281" stroke-width="0.75"/><rect x="961.5" y="273" width="26" height="26" rx="3" fill="#5598e7" stroke="#104281" stroke-width="0.75"/><rect x="992.5" y="273" width="26" height="26" rx="3" fill="#5598e7" stroke="#104281" stroke-width="0.75"/><rect x="1023.5" y="273" width="26" height="26" rx="3" fill="#5598e7" stroke="#104281" stroke-width="0.75"/><rect x="1054.5" y="273" width="26" height="26" rx="3" fill="#5598e7" stroke="#104281" stroke-width="0.75"/><rect x="1085.5" y="273" width="26" height="26" rx="3" fill="#5598e7" stroke="#104281" stroke-width="0.75"/><rect x="1116.5" y="273" width="26" height="26" rx="3" fill="#5598e7" stroke="#104281" stroke-width="0.75"/><rect x="1147.5" y="273" width="26" height="26" rx="3" fill="#5598e7" stroke="#104281" stroke-width="0.75"/><rect x="1178.5" y="273" width="26" height="26" rx="3" fill="#5598e7" stroke="#104281" stroke-width="0.75"/><rect x="1209.5" y="273" width="26" height="26" rx="3" fill="#5598e7" stroke="#104281" stroke-width="0.75"/><rect x="744.5" y="304" width="26" height="26" rx="3" fill="#5598e7" stroke="#104281" stroke-width="0.75"/><rect x="775.5" y="304" width="26" height="26" rx="3" fill="#5598e7" stroke="#104281" stroke-width="0.75"/><rect x="806.5" y="304" width="26" height="26" rx="3" fill="#5598e7" stroke="#104281" stroke-width="0.75"/><rect x="837.5" y="304" width="26" height="26" rx="3" fill="#5598e7" stroke="#104281" stroke-width="0.75"/><rect x="868.5" y="304" width="26" height="26" rx="3" fill="#5598e7" stroke="#104281" stroke-width="0.75"/><rect x="899.5" y="304" width="26" height="26" rx="3" fill="#5598e7" stroke="#104281" stroke-width="0.75"/><rect x="930.5" y="304" width="26" height="26" rx="3" fill="#5598e7" stroke="#104281" stroke-width="0.75"/><rect x="961.5" y="304" width="26" height="26" rx="3" fill="#5598e7" stroke="#104281" stroke-width="0.75"/><rect x="992.5" y="304" width="26" height="26" rx="3" fill="#5598e7" stroke="#104281" stroke-width="0.75"/><rect x="1023.5" y="304" width="26" height="26" rx="3" fill="#5598e7" stroke="#104281" stroke-width="0.75"/><rect x="1054.5" y="304" width="26" height="26" rx="3" fill="#5598e7" stroke="#104281" stroke-width="0.75"/><rect x="1085.5" y="304" width="26" height="26" rx="3" fill="#5598e7" stroke="#104281" stroke-width="0.75"/><rect x="1116.5" y="304" width="26" height="26" rx="3" fill="#5598e7" stroke="#104281" stroke-width="0.75"/><rect x="1147.5" y="304" width="26" height="26" rx="3" fill="#5598e7" stroke="#104281" stroke-width="0.75"/><rect x="1178.5" y="304" width="26" height="26" rx="3" fill="#5598e7" stroke="#104281" stroke-width="0.75"/><rect x="1209.5" y="304" width="26" height="26" rx="3" fill="#5598e7" stroke="#104281" stroke-width="0.75"/><rect x="744.5" y="335" width="26" height="26" rx="3" fill="#5598e7" stroke="#104281" stroke-width="0.75"/><rect x="775.5" y="335" width="26" height="26" rx="3" fill="#5598e7" stroke="#104281" stroke-width="0.75"/><rect x="806.5" y="335" width="26" height="26" rx="3" fill="#5598e7" stroke="#104281" stroke-width="0.75"/><rect x="837.5" y="335" width="26" height="26" rx="3" fill="#5598e7" stroke="#104281" stroke-width="0.75"/><rect x="868.5" y="335" width="26" height="26" rx="3" fill="#5598e7" stroke="#104281" stroke-width="0.75"/><rect x="899.5" y="335" width="26" height="26" rx="3" fill="#5598e7" stroke="#104281" stroke-width="0.75"/><rect x="930.5" y="335" width="26" height="26" rx="3" fill="#5598e7" stroke="#104281" stroke-width="0.75"/><rect x="961.5" y="335" width="26" height="26" rx="3" fill="#5598e7" stroke="#104281" stroke-width="0.75"/><rect x="992.5" y="335" width="26" height="26" rx="3" fill="#5598e7" stroke="#104281" stroke-width="0.75"/><rect x="1023.5" y="335" width="26" height="26" rx="3" fill="#5598e7" stroke="#104281" stroke-width="0.75"/><rect x="1054.5" y="335" width="26" height="26" rx="3" fill="#5598e7" stroke="#104281" stroke-width="0.75"/><rect x="1085.5" y="335" width="26" height="26" rx="3" fill="#5598e7" stroke="#104281" stroke-width="0.75"/><rect x="1116.5" y="335" width="26" height="26" rx="3" fill="#5598e7" stroke="#104281" stroke-width="0.75"/><rect x="1147.5" y="335" width="26" height="26" rx="3" fill="#5598e7" stroke="#104281" stroke-width="0.75"/><rect x="1178.5" y="335" width="26" height="26" rx="3" fill="#5598e7" stroke="#104281" stroke-width="0.75"/><rect x="1209.5" y="335" width="26" height="26" rx="3" fill="#5598e7" stroke="#104281" stroke-width="0.75"/><rect x="744.5" y="366" width="26" height="26" rx="3" fill="#5598e7" stroke="#104281" stroke-width="0.75"/><rect x="775.5" y="366" width="26" height="26" rx="3" fill="#5598e7" stroke="#104281" stroke-width="0.75"/><rect x="806.5" y="366" width="26" height="26" rx="3" fill="#5598e7" stroke="#104281" stroke-width="0.75"/><rect x="837.5" y="366" width="26" height="26" rx="3" fill="#5598e7" stroke="#104281" stroke-width="0.75"/><rect x="868.5" y="366" width="26" height="26" rx="3" fill="#5598e7" stroke="#104281" stroke-width="0.75"/><rect x="899.5" y="366" width="26" height="26" rx="3" fill="#5598e7" stroke="#104281" stroke-width="0.75"/><rect x="930.5" y="366" width="26" height="26" rx="3" fill="#5598e7" stroke="#104281" stroke-width="0.75"/><rect x="961.5" y="366" width="26" height="26" rx="3" fill="#5598e7" stroke="#104281" stroke-width="0.75"/><rect x="992.5" y="366" width="26" height="26" rx="3" fill="#5598e7" stroke="#104281" stroke-width="0.75"/><rect x="1023.5" y="366" width="26" height="26" rx="3" fill="#5598e7" stroke="#104281" stroke-width="0.75"/><rect x="1054.5" y="366" width="26" height="26" rx="3" fill="#5598e7" stroke="#104281" stroke-width="0.75"/><rect x="1085.5" y="366" width="26" height="26" rx="3" fill="#5598e7" stroke="#104281" stroke-width="0.75"/><rect x="1116.5" y="366" width="26" height="26" rx="3" fill="#5598e7" stroke="#104281" stroke-width="0.75"/><rect x="1147.5" y="366" width="26" height="26" rx="3" fill="#5598e7" stroke="#104281" stroke-width="0.75"/><rect x="1178.5" y="366" width="26" height="26" rx="3" fill="#5598e7" stroke="#104281" stroke-width="0.75"/><rect x="1209.5" y="366" width="26" height="26" rx="3" fill="#5598e7" stroke="#104281" stroke-width="0.75"/><rect x="744.5" y="397" width="26" height="26" rx="3" fill="#5598e7" stroke="#104281" stroke-width="0.75"/><rect x="775.5" y="397" width="26" height="26" rx="3" fill="#5598e7" stroke="#104281" stroke-width="0.75"/><rect x="806.5" y="397" width="26" height="26" rx="3" fill="#5598e7" stroke="#104281" stroke-width="0.75"/><rect x="837.5" y="397" width="26" height="26" rx="3" fill="#5598e7" stroke="#104281" stroke-width="0.75"/><rect x="868.5" y="397" width="26" height="26" rx="3" fill="#5598e7" stroke="#104281" stroke-width="0.75"/><rect x="899.5" y="397" width="26" height="26" rx="3" fill="#5598e7" stroke="#104281" stroke-width="0.75"/><rect x="930.5" y="397" width="26" height="26" rx="3" fill="#5598e7" stroke="#104281" stroke-width="0.75"/><rect x="961.5" y="397" width="26" height="26" rx="3" fill="#5598e7" stroke="#104281" stroke-width="0.75"/><rect x="992.5" y="397" width="26" height="26" rx="3" fill="#5598e7" stroke="#104281" stroke-width="0.75"/><rect x="1023.5" y="397" width="26" height="26" rx="3" fill="#5598e7" stroke="#104281" stroke-width="0.75"/><rect x="1054.5" y="397" width="26" height="26" rx="3" fill="#5598e7" stroke="#104281" stroke-width="0.75"/><rect x="1085.5" y="397" width="26" height="26" rx="3" fill="#5598e7" stroke="#104281" stroke-width="0.75"/><rect x="1116.5" y="397" width="26" height="26" rx="3" fill="#5598e7" stroke="#104281" stroke-width="0.75"/><rect x="1147.5" y="397" width="26" height="26" rx="3" fill="#5598e7" stroke="#104281" stroke-width="0.75"/><rect x="1178.5" y="397" width="26" height="26" rx="3" fill="#5598e7" stroke="#104281" stroke-width="0.75"/><rect x="1209.5" y="397" width="26" height="26" rx="3" fill="#5598e7" stroke="#104281" stroke-width="0.75"/><rect x="744.5" y="428" width="26" height="26" rx="3" fill="#5598e7" stroke="#104281" stroke-width="0.75"/><rect x="775.5" y="428" width="26" height="26" rx="3" fill="#5598e7" stroke="#104281" stroke-width="0.75"/><rect x="806.5" y="428" width="26" height="26" rx="3" fill="#5598e7" stroke="#104281" stroke-width="0.75"/><rect x="837.5" y="428" width="26" height="26" rx="3" fill="#5598e7" stroke="#104281" stroke-width="0.75"/><rect x="868.5" y="428" width="26" height="26" rx="3" fill="#5598e7" stroke="#104281" stroke-width="0.75"/><rect x="899.5" y="428" width="26" height="26" rx="3" fill="#5598e7" stroke="#104281" stroke-width="0.75"/><rect x="930.5" y="428" width="26" height="26" rx="3" fill="#5598e7" stroke="#104281" stroke-width="0.75"/><rect x="961.5" y="428" width="26" height="26" rx="3" fill="#5598e7" stroke="#104281" stroke-width="0.75"/><rect x="992.5" y="428" width="26" height="26" rx="3" fill="#5598e7" stroke="#104281" stroke-width="0.75"/><rect x="1023.5" y="428" width="26" height="26" rx="3" fill="#5598e7" stroke="#104281" stroke-width="0.75"/><rect x="1054.5" y="428" width="26" height="26" rx="3" fill="#5598e7" stroke="#104281" stroke-width="0.75"/><rect x="1085.5" y="428" width="26" height="26" rx="3" fill="#5598e7" stroke="#104281" stroke-width="0.75"/><rect x="1116.5" y="428" width="26" height="26" rx="3" fill="#5598e7" stroke="#104281" stroke-width="0.75"/><rect x="1147.5" y="428" width="26" height="26" rx="3" fill="#5598e7" stroke="#104281" stroke-width="0.75"/><rect x="1178.5" y="428" width="26" height="26" rx="3" fill="#5598e7" stroke="#104281" stroke-width="0.75"/><rect x="1209.5" y="428" width="26" height="26" rx="3" fill="#5598e7" stroke="#104281" stroke-width="0.75"/><rect x="744.5" y="459" width="26" height="26" rx="3" fill="#5598e7" stroke="#104281" stroke-width="0.75"/><rect x="775.5" y="459" width="26" height="26" rx="3" fill="#5598e7" stroke="#104281" stroke-width="0.75"/><rect x="806.5" y="459" width="26" height="26" rx="3" fill="#5598e7" stroke="#104281" stroke-width="0.75"/><rect x="837.5" y="459" width="26" height="26" rx="3" fill="#5598e7" stroke="#104281" stroke-width="0.75"/><rect x="868.5" y="459" width="26" height="26" rx="3" fill="#5598e7" stroke="#104281" stroke-width="0.75"/><rect x="899.5" y="459" width="26" height="26" rx="3" fill="#5598e7" stroke="#104281" stroke-width="0.75"/><rect x="930.5" y="459" width="26" height="26" rx="3" fill="#5598e7" stroke="#104281" stroke-width="0.75"/><rect x="961.5" y="459" width="26" height="26" rx="3" fill="#5598e7" stroke="#104281" stroke-width="0.75"/><rect x="992.5" y="459" width="26" height="26" rx="3" fill="#5598e7" stroke="#104281" stroke-width="0.75"/><rect x="1023.5" y="459" width="26" height="26" rx="3" fill="#5598e7" stroke="#104281" stroke-width="0.75"/><rect x="1054.5" y="459" width="26" height="26" rx="3" fill="#5598e7" stroke="#104281" stroke-width="0.75"/><rect x="1085.5" y="459" width="26" height="26" rx="3" fill="#5598e7" stroke="#104281" stroke-width="0.75"/><rect x="1116.5" y="459" width="26" height="26" rx="3" fill="#5598e7" stroke="#104281" stroke-width="0.75"/><rect x="1147.5" y="459" width="26" height="26" rx="3" fill="#5598e7" stroke="#104281" stroke-width="0.75"/><rect x="1178.5" y="459" width="26" height="26" rx="3" fill="#5598e7" stroke="#104281" stroke-width="0.75"/><rect x="1209.5" y="459" width="26" height="26" rx="3" fill="#5598e7" stroke="#104281" stroke-width="0.75"/><text x="990" y="520" text-anchor="middle" font-size="12" fill="#52514e">optimized for the same operation applied across many data points</text></svg>